<svg xmlns="http://www.w3.org/2000/svg" viewBox="0 0 512 512">
  <rect width="512" height="512" rx="80" fill="#1a1a1a"/>
  <!-- Book spine -->
  <rect x="248" y="120" width="16" height="272" rx="4" fill="#888"/>
  <!-- Left page -->
  <rect x="96" y="120" width="152" height="272" rx="8" fill="#2a2a2a" stroke="#555" stroke-width="2"/>
  <!-- Right page -->
  <rect x="264" y="120" width="152" height="272" rx="8" fill="#2a2a2a" stroke="#555" stroke-width="2"/>
  <!-- Left lines -->
  <rect x="116" y="168" width="112" height="8" rx="4" fill="#4a9eff"/>
  <rect x="116" y="196" width="96" height="8" rx="4" fill="#555"/>
  <rect x="116" y="224" width="104" height="8" rx="4" fill="#555"/>
  <rect x="116" y="252" width="88" height="8" rx="4" fill="#555"/>
  <rect x="116" y="280" width="100" height="8" rx="4" fill="#555"/>
  <rect x="116" y="308" width="80" height="8" rx="4" fill="#555"/>
  <!-- Right lines -->
  <rect x="284" y="168" width="112" height="8" rx="4" fill="#555"/>
  <rect x="284" y="196" width="96" height="8" rx="4" fill="#555"/>
  <rect x="284" y="224" width="104" height="8" rx="4" fill="#555"/>
  <rect x="284" y="252" width="88" height="8" rx="4" fill="#555"/>
  <!-- Speaker / play indicator -->
  <circle cx="340" cy="310" r="44" fill="#4a9eff" opacity="0.15"/>
  <polygon points="328,290 328,330 364,310" fill="#4a9eff"/>
</svg>
